# xmcd
# 
# Track frame offsets:
#     150
#     17564
#     37129
#     59701
#     80903
#     102212
#     128744
#     149606
#     166121
#     188405
#     202280
#     215914
#     235424
#     252836
# 
# Disc length: 3963
# 
# Revision: 13
# Processed by: cddbd v1.5.2PL0 Copyright (c) Steve Scherf et al.
# Submitted via: fre:ac v1.0.27
# 
DISCID=d60f790e
DTITLE=U2 - The Best Of 1980-1990 and B-Sides [CD01)
DYEAR=1998
DGENRE=Rock
TTITLE0=Pride (In The Name Of Love)
TTITLE1=New Year's Day
TTITLE2=With Or Without You
TTITLE3=I Still Haven't Found What I'm Looking For
TTITLE4=Sunday Bloody Sunday
TTITLE5=Bad
TTITLE6=Where The Streets Have No Name
TTITLE7=I Will Follow
TTITLE8=The Unforgettable Fire
TTITLE9=Sweetest Thing (The Single Mix)
TTITLE10=Desire
TTITLE11=When Love Comes To Town
TTITLE12=Angel Of Harlem
TTITLE13=All I Want Is You
EXTD=
EXTT0=
EXTT1=
EXTT2=
EXTT3=
EXTT4=
EXTT5=
EXTT6=
EXTT7=
EXTT8=
EXTT9=
EXTT10=
EXTT11=
EXTT12=
EXTT13=
PLAYORDER=
